<svg width="24" height="25" viewBox="0 0 24 25" fill="none" xmlns="http://www.w3.org/2000/svg">
<path d="M20.512 21.216C18.3787 23.4347 15.5627 24.544 12.064 24.544C8.56533 24.544 5.76 23.4347 3.648 21.216C1.536 18.976 0.48 16.1173 0.48 12.64C0.48 9.16266 1.536 6.304 3.648 4.064C5.76 1.82399 8.56533 0.703995 12.064 0.703995C15.5627 0.703995 18.3787 1.82399 20.512 4.064C22.6453 6.304 23.712 9.16266 23.712 12.64C23.712 16.1173 22.6453 18.976 20.512 21.216ZM8.512 17.376C9.344 18.592 10.5387 19.2 12.096 19.2C13.6533 19.2 14.848 18.592 15.68 17.376C16.512 16.16 16.928 14.5813 16.928 12.64C16.928 10.6987 16.512 9.12 15.68 7.904C14.848 6.66666 13.6533 6.04799 12.096 6.04799C10.5387 6.04799 9.344 6.66666 8.512 7.904C7.68 9.12 7.264 10.6987 7.264 12.64C7.264 14.5813 7.68 16.16 8.512 17.376Z" fill="#C1C0C0"/>
</svg>
